<?xml version="1.0" standalone="no"?>
<!DOCTYPE svg PUBLIC "-//W3C//DTD SVG 20010904//EN"
 "http://www.w3.org/TR/2001/REC-SVG-20010904/DTD/svg10.dtd">
<svg version="1.0" xmlns="http://www.w3.org/2000/svg"
 width="612.000000pt" height="433.000000pt" viewBox="0 0 612.000000 433.000000"
 preserveAspectRatio="xMidYMid meet">
<metadata>
Created by potrace 1.16, written by Peter Selinger 2001-2019
</metadata>
<g transform="translate(0.000000,433.000000) scale(0.100000,-0.100000)"
fill="#000000" stroke="none">
<path d="M1325 3410 c-39 -8 -66 -23 -86 -47 -22 -25 -49 -111 -46 -148 2 -25
-2 -29 -23 -30 -20 0 -26 -6 -28 -27 -2 -16 -8 -28 -13 -28 -6 0 -7 -5 -3 -11
4 -8 -1 -9 -16 -4 -36 11 -144 13 -157 3 -20 -16 -15 -36 10 -41 17 -3 15 -5
-9 -6 -33 -1 -72 -43 -80 -87 -4 -20 0 -24 18 -24 13 0 64 -12 113 -26 77 -23
308 -72 491 -106 l52 -9 -11 -30 c-9 -24 -9 -32 2 -38 23 -15 4 -39 -34 -47
-37 -7 -54 -5 -165 20 -36 7 -67 12 -69 10 -2 -2 10 -7 27 -10 18 -4 32 -10
32 -14 0 -5 10 -6 23 -3 16 3 18 2 8 -5 -9 -7 -10 -12 -2 -16 25 -16 6 -36
-75 -82 -181 -102 -329 -286 -494 -615 -71 -141 -61 -137 14 6 189 362 329
524 538 626 l45 21 71 -22 72 -23 0 -39 c0 -26 -17 -79 -50 -152 -102 -232
-276 -696 -285 -760 -2 -17 -4 -31 -5 -31 0 0 -3 -22 -5 -50 l-3 -50 14 55
c24 92 84 267 141 415 30 77 59 154 65 170 15 41 38 75 51 75 23 0 107 44 104
54 -2 6 -12 10 -21 10 -9 -1 -16 5 -16 13 0 29 53 199 72 230 19 32 19 32 86
27 68 -6 117 -14 209 -36 l52 -12 -37 -33 c-19 -18 -56 -40 -81 -50 -25 -9
-66 -25 -91 -35 -43 -18 -31 -18 35 -2 15 4 14 1 -5 -10 -14 -9 -37 -15 -52
-16 -21 0 -28 -5 -28 -20 0 -18 2 -18 38 -6 20 8 66 27 102 44 36 16 135 50
220 76 85 25 190 60 233 77 102 39 117 35 117 -36 0 -49 -3 -56 -27 -72 -30
-18 -242 -180 -258 -196 -15 -16 46 23 87 55 36 28 64 26 30 -3 -96 -79 -139
-114 -147 -122 -27 -26 84 44 190 119 65 47 123 86 128 87 25 5 23 -52 -4
-134 -16 -46 -28 -100 -28 -119 0 -19 3 -29 6 -22 4 10 9 9 20 -5 8 -10 11
-12 7 -4 -5 10 -3 13 8 8 17 -6 32 17 43 68 9 35 10 32 45 -82 13 -40 27 -73
32 -73 6 0 7 8 3 18 -21 50 -44 140 -48 187 -1 11 -6 26 -11 34 -6 9 -5 12 2
8 6 -5 8 1 5 14 -4 16 -8 17 -14 7 -6 -9 -8 -5 -7 12 3 55 -2 101 -12 95 -6
-4 -10 5 -10 19 0 14 -3 26 -7 26 -5 0 -9 16 -11 36 -2 29 1 35 13 30 9 -3 18
1 21 9 4 9 19 15 35 15 l29 0 -20 -20 c-11 -11 -29 -20 -39 -20 -19 0 -19 -1
-1 -62 11 -35 24 -79 29 -98 6 -19 9 -26 8 -14 -2 21 18 54 33 54 5 0 8 -16 7
-36 -1 -32 6 -43 64 -97 123 -118 175 -163 299 -265 69 -57 98 -78 65 -47 -33
31 -59 60 -57 65 1 6 -1 9 -5 8 -14 -5 -53 28 -45 37 4 5 1 5 -5 1 -7 -4 -13
-2 -13 4 0 6 -5 8 -12 4 -8 -5 -9 -2 -4 12 4 10 4 15 0 11 -12 -11 -197 157
-186 169 4 4 2 4 -5 1 -6 -4 -21 5 -32 19 -23 29 -20 60 6 81 13 10 108 42
206 69 16 5 22 17 18 38 -3 16 34 49 77 67 23 10 42 20 42 23 0 7 -111 0 -142
-9 -16 -4 -36 -4 -45 0 -15 5 -12 9 17 23 l35 16 -34 4 c-21 2 -37 -2 -42 -10
-7 -10 -9 -8 -9 6 0 14 -6 17 -24 14 -19 -4 -24 -1 -23 14 1 18 7 19 82 13
167 -12 215 -13 208 -2 -4 6 4 8 21 5 14 -3 26 -1 26 3 0 5 7 9 16 9 8 0 13 3
10 8 -2 4 14 5 37 3 23 -2 36 -6 30 -8 -7 -3 -13 -11 -13 -19 0 -9 -4 -12 -10
-9 -5 3 -10 2 -10 -4 0 -6 -11 -13 -25 -17 -14 -3 -25 -11 -25 -16 0 -6 8 -7
18 -3 9 4 42 14 72 22 78 20 140 44 140 54 0 5 20 9 44 9 28 0 51 6 61 17 9 9
31 16 48 16 41 -2 178 37 171 48 -2 5 -15 4 -28 -1 -21 -8 -90 1 -103 13 -8 9
83 19 127 15 33 -3 38 -1 26 8 -19 13 -21 25 -5 22 6 -2 14 3 17 11 3 8 0 11
-6 7 -12 -7 -10 14 7 57 6 16 11 42 11 59 0 30 0 31 -20 13 -11 -10 -17 -21
-15 -25 3 -4 -1 -10 -9 -13 -9 -4 -13 -15 -10 -29 5 -23 4 -23 -6 1 -7 17 -7
34 0 56 11 32 5 65 -11 65 -5 0 -9 -4 -9 -9 0 -13 -33 -7 -38 7 -2 7 -15 9
-33 5 -18 -3 -29 -1 -29 6 0 6 5 11 10 11 18 0 10 19 -11 25 -11 4 -18 12 -16
18 5 13 40 10 45 -4 2 -5 8 -9 14 -9 7 0 7 5 -1 13 -6 8 -7 18 -3 22 4 5 2 5
-5 1 -6 -3 -16 1 -21 11 -9 15 -14 16 -51 3 -39 -13 -43 -12 -67 11 -18 17
-23 19 -18 6 4 -13 1 -17 -15 -17 -12 0 -20 6 -19 13 2 7 -5 11 -17 9 -26 -4
-65 -8 -87 -10 -20 -2 -25 -32 -5 -33 6 0 3 -4 -8 -9 -17 -7 -17 -9 -2 -9 9
-1 17 -5 17 -11 0 -17 -36 -11 -64 11 -32 25 -47 17 -21 -11 18 -20 18 -21 -5
-43 -12 -12 -20 -16 -16 -9 4 6 3 12 -2 12 -6 0 -12 -6 -15 -14 -4 -9 -14 -12
-26 -9 -23 6 -81 -14 -96 -34 -7 -8 -44 -13 -120 -13 -116 -1 -210 -21 -232
-49 -10 -14 -15 -14 -45 1 -21 11 -62 18 -115 20 -44 2 -79 6 -77 10 2 4 -4 9
-15 13 -11 3 -22 12 -25 20 -3 8 -13 15 -23 15 -15 0 -14 4 7 19 19 15 22 22
12 33 -6 8 -8 18 -4 23 4 4 -4 5 -18 1 -14 -4 -36 -9 -50 -12 -24 -4 -24 -4 5
17 17 11 22 19 13 15 -23 -7 -23 3 0 21 12 11 13 13 2 10 -8 -2 -19 2 -25 10
-8 10 -18 11 -43 4 -28 -8 -33 -8 -28 4 3 9 0 15 -8 15 -8 0 -16 7 -20 15 -4
11 -19 15 -53 14 -26 -1 -40 -3 -30 -6 11 -3 16 -11 13 -19 -3 -7 2 -17 10
-22 8 -5 16 -22 16 -39 1 -22 8 -34 22 -41 19 -8 18 -10 -16 -22 -21 -8 -39
-21 -41 -29 -3 -9 -5 1 -6 22 -1 40 -21 52 -21 12 0 -33 -35 -54 -85 -50 -63
4 -78 14 -72 44 9 44 -48 55 -256 47 -173 -6 -204 5 -52 18 44 4 109 14 146
21 65 14 79 15 129 15 14 0 46 0 72 -1 26 0 50 -4 53 -9 8 -13 25 -13 25 1 0
5 -23 20 -51 31 -41 17 -48 23 -33 29 11 3 21 4 24 0 9 -11 80 -41 80 -33 0 4
-10 16 -21 26 -26 22 -172 36 -183 18 -5 -8 -15 -8 -33 -1 -26 10 -38 6 -38
-14 0 -13 -33 -22 -101 -30 -49 -5 -49 -5 -49 24 -1 16 5 31 13 34 9 3 12 0 9
-8 -3 -8 3 -13 14 -14 10 -1 19 2 19 8 0 27 36 49 81 49 29 0 49 5 52 13 4 10
6 10 6 0 1 -7 7 -13 14 -13 7 0 20 6 29 13 13 9 14 18 6 37 -9 24 -10 24 -23
6 -13 -18 -15 -17 -46 13 -18 18 -38 30 -46 27 -8 -3 -11 -10 -8 -16 3 -5 -1
-10 -9 -10 -9 0 -16 -7 -16 -15 0 -9 -10 -16 -27 -16 -69 -4 -101 -4 -101 1 2
23 -4 40 -11 36 -5 -3 -11 8 -13 24 -3 22 0 30 10 30 12 0 12 3 2 15 -9 11
-15 12 -20 5 -7 -12 -40 -3 -40 11 0 21 -3 25 -28 40 -34 21 -79 28 -117 19z
m540 -616 c11 -5 13 -9 5 -14 -6 -4 11 -16 42 -29 47 -20 51 -23 34 -33 -18
-10 -14 -14 35 -36 l54 -25 -39 -9 c-25 -5 -68 -5 -114 2 -40 5 -96 10 -123
10 -27 0 -49 2 -49 5 0 19 84 115 100 115 10 0 22 5 25 10 7 12 8 12 30 4z"/>
<path d="M5028 3180 c3 -30 1 -41 -7 -36 -7 5 -10 -1 -8 -16 1 -15 -5 -26 -20
-33 -13 -5 -23 -15 -23 -21 0 -7 -9 -14 -21 -17 -17 -5 -19 -9 -9 -26 6 -12
20 -21 31 -21 24 0 80 -40 73 -52 -3 -4 -14 -8 -25 -8 -11 0 -17 -4 -14 -10 3
-5 -2 -21 -11 -35 -16 -24 -15 -25 5 -25 16 0 21 6 21 25 0 14 9 30 20 37 11
7 20 17 20 23 0 10 38 39 52 40 7 0 51 47 56 59 2 5 -3 13 -11 17 -10 6 -13
22 -10 56 2 26 0 53 -4 59 -4 7 -33 15 -63 19 l-56 7 4 -42z"/>
<path d="M4319 3132 c-1 -4 0 -17 1 -30 1 -20 -2 -22 -23 -17 -22 6 -27 1 -42
-32 -15 -34 -20 -38 -50 -37 -36 1 -68 20 -59 35 6 10 -20 12 -53 3 -13 -4
-20 -10 -17 -16 3 -5 -6 -6 -22 -2 -23 6 -26 4 -21 -10 4 -9 2 -16 -4 -16 -5
0 -14 -11 -20 -24 -7 -14 -17 -22 -24 -19 -8 2 -24 -1 -37 -8 -29 -16 -78 -12
-101 9 -17 15 -17 15 -10 -4 7 -18 6 -18 -18 -2 -14 9 -39 18 -55 20 -35 4
-47 44 -18 65 15 11 16 13 1 19 -9 3 -24 -1 -33 -11 -10 -9 -28 -21 -41 -26
-22 -8 -34 -49 -14 -49 5 0 7 -9 4 -20 -3 -12 0 -20 6 -20 7 0 11 -6 9 -12 -3
-17 24 -58 39 -58 6 0 21 -13 33 -30 l21 -30 -31 0 c-18 0 -29 -4 -25 -10 3
-5 -1 -10 -10 -10 -11 0 -15 -5 -11 -16 3 -9 2 -12 -5 -9 -6 4 -8 13 -5 20 2
7 -2 21 -9 32 -11 14 -15 15 -15 3 0 -8 -8 -2 -16 13 -9 16 -18 27 -21 24 -2
-3 2 -16 11 -29 9 -14 13 -33 9 -47 -4 -17 -8 -19 -14 -9 -5 8 -8 1 -6 -20 1
-20 6 -30 14 -28 9 4 10 -1 1 -19 -6 -14 -20 -28 -32 -31 -12 -4 -29 -15 -40
-26 -11 -12 -26 -18 -38 -15 -11 3 -21 0 -25 -9 -3 -9 -13 -12 -31 -7 -16 4
-23 2 -19 -4 7 -11 -6 -17 -93 -46 -55 -19 -116 -28 -125 -19 -3 4 -36 7 -72
7 -36 1 -60 -1 -54 -3 6 -2 11 -8 11 -14 0 -6 -7 -8 -15 -5 -8 4 -17 2 -20 -2
-3 -5 -15 -7 -27 -3 -13 3 -19 1 -15 -5 4 -6 -12 -16 -36 -23 -23 -8 -46 -18
-52 -23 -7 -7 -5 -7 4 -2 9 5 12 4 7 -3 -4 -7 -21 -12 -37 -12 -17 0 -32 -6
-35 -14 -3 -8 -11 -13 -19 -10 -17 7 -26 -21 -15 -48 l9 -23 0 22 c1 12 5 24
9 27 5 3 53 12 108 21 106 18 219 50 244 71 8 6 56 21 105 33 118 28 198 52
210 63 20 18 35 7 35 -25 0 -31 3 -34 50 -46 28 -7 50 -14 50 -16 0 -1 -4 -26
-10 -55 -7 -39 -6 -69 5 -123 19 -91 50 -173 65 -169 6 1 9 -2 5 -7 -3 -6 13
-39 35 -73 33 -50 40 -57 35 -33 -3 17 -20 60 -37 97 -27 60 -31 77 -31 170
-1 113 6 141 29 111 7 -10 14 -25 14 -33 0 -9 15 -47 34 -85 33 -70 69 -110
136 -155 19 -13 56 -42 83 -64 26 -21 50 -37 53 -34 6 7 -70 89 -83 90 -20 1
-33 11 -33 25 0 9 5 11 13 7 6 -4 3 2 -7 14 -11 12 -22 19 -25 16 -3 -4 0 -9
7 -11 6 -3 10 -9 7 -14 -8 -12 -45 12 -45 29 0 7 4 11 9 7 6 -3 -1 14 -14 37
-38 69 -58 154 -51 210 5 34 4 48 -4 43 -25 -16 -5 -158 34 -233 21 -41 20
-49 -2 -29 -10 10 -21 14 -25 11 -7 -7 -77 129 -77 148 0 9 3 9 10 -2 5 -9 8
16 6 70 -5 109 1 140 25 140 15 0 19 -7 19 -37 0 -33 1 -35 14 -18 12 17 14
14 30 -30 9 -27 16 -62 16 -79 0 -50 20 -107 45 -130 26 -24 150 -53 274 -63
l69 -6 17 -43 c13 -35 109 -184 118 -184 2 0 3 11 3 25 0 19 -4 24 -15 20 -13
-5 -13 -4 -4 6 19 19 41 -6 39 -42 -1 -17 2 -33 7 -36 6 -3 7 -1 3 5 -9 16 7
15 22 0 20 -20 14 -2 -23 75 -31 64 -32 69 -10 44 31 -35 32 -28 3 25 -71 128
-71 126 -18 93 46 -29 67 -31 92 -8 17 15 18 15 18 -6 0 -34 69 -308 86 -339
8 -15 14 -20 14 -12 0 13 1 13 10 0 8 -13 10 -12 11 5 1 11 1 25 0 30 -1 6 5
2 13 -9 15 -18 16 -18 27 8 7 14 16 26 21 26 4 0 8 20 8 45 0 50 11 58 28 20
6 -13 28 -32 49 -40 21 -9 50 -28 66 -42 19 -19 30 -24 38 -16 7 7 5 15 -6 27
-9 9 -13 16 -10 16 4 0 -7 18 -24 39 -39 49 -70 118 -71 153 0 16 12 41 30 62
37 41 87 54 128 32 15 -8 58 -18 95 -21 78 -8 69 3 131 -160 23 -62 40 -135
55 -235 40 -275 40 -272 22 -300 -14 -22 -11 -21 26 9 34 27 45 31 61 22 33
-18 41 -101 9 -101 -7 0 -6 -4 3 -10 13 -8 12 -10 -4 -10 -13 0 -16 -5 -12
-17 4 -10 4 -14 0 -10 -4 4 -13 2 -21 -4 -10 -9 -17 -8 -28 1 -12 10 -15 10
-15 -4 0 -11 -9 -16 -29 -16 -42 0 -56 43 -28 83 10 16 17 30 15 33 -3 2 -16
-11 -29 -31 -13 -19 -67 -64 -119 -99 -278 -189 -620 -527 -620 -612 0 -17 6
-24 20 -24 14 0 18 5 13 17 -4 10 -2 14 5 9 13 -8 12 -46 -2 -65 -9 -12 -3
-13 37 -8 26 4 47 3 47 -1 0 -4 33 -8 73 -9 39 -1 95 -7 122 -13 28 -6 86 -12
130 -12 89 -1 121 11 169 61 16 17 33 28 38 25 4 -3 8 4 8 15 0 11 9 25 19 31
29 15 32 13 25 -17 l-5 -28 26 30 c15 17 50 57 78 90 29 33 73 82 98 110 43
48 184 217 261 313 37 46 108 180 113 211 1 9 10 16 21 16 14 0 19 -7 18 -24
l-1 -24 19 22 c70 87 124 565 84 744 -19 83 -34 108 -29 49 3 -33 2 -35 -8
-15 -9 17 -18 21 -40 16 -18 -3 -35 0 -46 8 -13 11 -17 11 -20 2 -7 -20 -23
-15 -23 6 0 25 -18 37 -33 22 -8 -8 -8 -11 1 -11 16 0 15 -21 -3 -44 -15 -19
-15 -19 -29 -1 -13 19 -10 59 4 50 5 -3 6 3 4 13 -4 15 1 17 39 14 42 -4 47
-2 70 33 26 39 27 46 9 166 -10 66 -44 148 -82 196 -11 14 -20 35 -20 46 0 11
-2 18 -6 15 -3 -3 -17 6 -32 21 -24 23 -27 32 -24 83 2 47 -1 61 -18 78 -11
11 -20 24 -20 29 0 5 -3 11 -7 13 -9 4 -62 72 -80 102 -7 12 -12 16 -13 10 0
-6 13 -29 30 -52 28 -39 63 -112 57 -118 -2 -2 -25 30 -52 71 -28 41 -53 75
-57 75 -5 0 -8 7 -8 16 0 8 -4 12 -10 9 -19 -12 -11 -55 13 -64 52 -20 79 -79
48 -110 -21 -21 -18 -66 4 -58 8 4 11 -12 9 -53 l-1 -58 33 5 c23 4 34 2 34
-6 0 -7 4 -10 9 -7 10 7 21 -17 21 -45 0 -16 3 -17 19 -8 39 25 102 -52 82
-102 l-10 -24 0 28 c-1 26 -21 40 -21 14 0 -8 -7 -14 -15 -15 -8 -1 -22 -3
-30 -4 -23 -2 3 -28 28 -28 11 0 17 -3 14 -7 -4 -3 -2 -12 4 -20 9 -9 8 -17
-1 -28 -15 -18 -70 -9 -87 14 -10 14 -12 13 -17 -9 -2 -14 -4 -32 -4 -40 1 -8
-2 -33 -6 -55 -5 -29 -4 -36 3 -25 9 12 11 9 11 -14 0 -16 6 -34 14 -40 8 -6
16 -27 18 -46 3 -31 0 -35 -24 -38 -15 -2 -34 -14 -43 -29 -16 -24 -16 -25 -1
-20 23 9 20 -6 -5 -22 -18 -11 -23 -11 -31 1 -7 9 -8 8 -4 -6 6 -19 -9 -46
-25 -46 -5 0 -7 11 -5 25 4 20 1 25 -15 25 -10 0 -18 -3 -18 -7 4 -23 -3 -35
-16 -30 -8 4 -22 -5 -33 -21 -17 -22 -22 -24 -35 -14 -12 10 -16 10 -20 0 -3
-7 -6 -2 -6 11 -1 21 -3 22 -18 10 -15 -12 -16 -12 -10 3 3 9 1 19 -6 22 -9 5
-9 7 1 12 6 3 12 15 11 27 0 21 -1 21 -9 2 -7 -17 -9 -16 -9 10 -1 17 -4 41
-8 54 -4 17 -3 22 5 17 8 -4 12 0 12 11 0 15 2 16 11 3 8 -12 9 -10 4 8 -5 17
-2 22 13 22 11 0 22 7 26 15 3 9 0 15 -8 15 -8 0 -16 7 -20 15 -3 9 0 15 9 15
23 0 18 40 -11 77 -26 35 -54 44 -54 17 0 -8 -5 -12 -10 -9 -6 4 -18 -3 -28
-15 -17 -21 -21 -21 -60 -9 -46 13 -86 49 -64 56 15 6 16 35 0 51 -10 10 -7
16 10 28 34 23 43 47 32 84 -13 46 2 70 45 70 39 0 46 14 15 30 -25 13 -78 -6
-82 -30 -2 -8 -10 -15 -18 -16 -75 -5 -76 -5 -55 -14 11 -5 14 -9 8 -9 -7 -1
-13 -7 -13 -15 0 -8 -6 -17 -12 -19 -9 -4 -10 -8 -2 -14 19 -14 22 -38 8 -58
-14 -18 -14 -18 -27 0 -13 17 -14 16 -20 -14 -4 -17 -11 -31 -16 -31 -10 0
-24 47 -17 58 9 15 9 162 0 163 -5 0 -13 7 -17 15 -12 21 -25 17 -29 -8 -2
-18 -10 -23 -35 -23 -18 -1 -33 3 -33 8 0 6 -17 7 -39 4 l-39 -5 0 44 c-1 24
3 44 8 44 6 0 10 7 10 15 0 9 7 18 15 22 14 5 14 7 1 22 -9 10 -19 32 -22 49
-5 25 -3 32 10 32 17 0 22 35 8 57 -11 17 -44 -21 -36 -42 4 -10 0 -15 -10
-15 -9 0 -16 -5 -16 -11 0 -8 -4 -8 -14 0 -11 10 -17 8 -25 -6 -9 -14 -10 -8
-5 27 5 44 5 44 -10 20 -8 -14 -15 -32 -16 -40 0 -9 -10 -16 -21 -17 -12 -1
-29 -8 -38 -15 -9 -7 -26 -19 -38 -26 -20 -11 -23 -10 -23 5 0 11 -3 14 -8 7
-10 -16 -72 -29 -72 -15 0 6 10 20 22 31 19 18 21 23 10 41 -11 16 -11 24 -1
35 11 13 9 14 -14 9 -22 -6 -26 -4 -21 9 4 11 1 16 -11 16 -10 0 -13 5 -9 12
5 7 3 8 -7 2 -20 -12 -40 -14 -33 -3 3 5 10 7 15 4 17 -11 9 12 -11 30 -17 15
-23 16 -33 5 -10 -10 -9 -12 5 -7 10 3 20 1 24 -5 4 -6 3 -9 -2 -5 -5 3 -17
-1 -28 -8 -17 -13 -17 -14 2 -35 13 -14 22 -18 27 -11 10 17 24 4 18 -17 -2
-9 -10 -25 -18 -35 -11 -16 -17 -17 -36 -7 -20 11 -21 10 -17 -7 3 -13 -2 -24
-13 -32 -11 -6 -19 -17 -19 -25 0 -20 -27 -28 -34 -10 -9 25 -7 59 5 71 12 12
3 53 -12 53 -5 0 -9 5 -9 12 0 7 7 5 18 -5 9 -9 22 -13 28 -9 16 10 26 46 18
65 -6 16 -33 31 -35 19z m-283 -487 c3 -13 1 -39 -5 -56 -6 -18 -11 -43 -11
-56 0 -27 73 -103 128 -133 36 -19 36 -20 7 -14 -16 4 -35 11 -42 16 -7 5 -18
6 -24 2 -7 -4 -9 -3 -6 3 4 6 -12 16 -38 23 -25 7 -45 16 -45 21 0 4 -6 14
-13 21 -7 7 -22 29 -34 50 l-21 36 20 44 c17 38 43 62 70 67 4 0 10 -10 14
-24z m913 -31 c-6 -8 -3 -13 10 -17 19 -5 40 -52 28 -63 -2 -3 -46 -9 -96 -14
-51 -6 -101 -15 -112 -21 -25 -13 -53 -4 -46 15 4 9 -3 16 -18 19 -30 5 -35 1
-35 -30 0 -12 -4 -23 -8 -23 -5 0 -17 -17 -26 -37 -12 -28 -23 -38 -40 -38
-22 0 -23 1 -10 47 6 26 10 49 7 52 -10 10 9 45 28 51 10 4 33 18 51 33 26 22
45 28 102 32 117 9 176 7 165 -6z m-385 -108 c-21 -38 -25 -56 -22 -107 l3
-60 -40 7 c-89 15 -134 55 -135 120 0 47 9 54 68 55 20 0 62 8 92 18 30 10 56
17 58 16 1 -1 -9 -23 -24 -49z m-276 -151 c-3 -4 -118 50 -161 75 -28 16 -1
48 68 80 l60 27 18 -89 c10 -50 17 -91 15 -93z m651 109 c2 -2 -9 -4 -25 -5
-29 -1 -29 -1 -4 -9 l25 -7 -25 -7 c-14 -4 -40 -8 -58 -9 -25 -2 -35 -9 -47
-34 -8 -17 -31 -59 -50 -93 -19 -34 -41 -82 -48 -107 l-13 -45 -14 29 c-18 38
-25 179 -11 230 6 23 18 49 27 57 13 14 18 13 48 -3 33 -19 136 -25 136 -9 0
4 -9 8 -19 8 -11 0 -28 3 -38 7 -16 6 -15 8 7 13 23 6 98 -5 109 -16z m153
-109 c41 -9 76 -22 81 -31 7 -12 11 -13 25 -2 15 11 14 10 0 -8 -10 -11 -18
-25 -18 -31 0 -5 -25 -11 -56 -12 -31 -1 -61 -4 -65 -7 -5 -3 -30 -7 -55 -9
l-45 -4 6 32 c5 27 4 30 -7 16 -7 -9 -24 -20 -38 -24 -24 -7 -107 -69 -122
-90 -5 -6 -11 -6 -19 2 -9 9 -8 18 5 37 9 14 17 29 18 33 1 5 20 25 41 46 27
26 44 36 57 32 11 -3 22 0 27 9 7 12 23 17 80 25 6 0 45 -6 85 -14z m278 -365
c0 -22 20 -26 37 -9 14 14 47 4 38 -11 -3 -5 -1 -19 5 -30 15 -28 -5 -57 -26
-39 -11 9 -14 8 -14 -4 0 -8 7 -20 15 -27 8 -7 15 -23 15 -36 0 -13 5 -24 10
-24 6 0 10 -9 10 -20 0 -24 17 -25 45 -4 15 11 17 18 9 32 -12 19 -7 45 7 36
5 -3 9 0 9 6 0 6 5 8 13 3 6 -4 19 -8 27 -8 9 0 14 -8 12 -20 -1 -11 -4 -33
-5 -49 -1 -16 -8 -31 -14 -33 -7 -3 -9 -14 -4 -31 4 -15 5 -35 3 -45 -3 -15
-6 -16 -18 -6 -12 10 -12 14 -2 20 10 7 9 9 -4 9 -10 0 -22 9 -28 20 -7 13
-16 17 -28 13 -15 -6 -15 -5 -3 10 12 15 11 17 -11 15 -20 -2 -24 -8 -25 -40
-1 -21 2 -38 8 -38 5 0 8 -6 7 -12 -2 -7 12 -17 30 -22 40 -13 42 -30 2 -21
-25 5 -29 4 -24 -9 3 -9 10 -16 15 -16 5 0 9 -5 9 -10 0 -12 -69 -10 -76 2 -3
5 -10 5 -16 2 -6 -4 -9 -1 -6 7 2 7 -4 23 -14 34 -18 19 -18 20 -1 32 14 11
15 15 4 26 -11 9 -14 9 -18 0 -3 -7 -9 -13 -14 -13 -6 0 -6 8 1 19 5 11 10 27
10 36 0 9 10 25 23 35 12 10 18 22 14 26 -4 5 -11 4 -15 -1 -12 -17 -32 -16
-32 1 0 8 5 12 10 9 6 -3 10 -1 10 5 0 6 -8 10 -17 8 -10 -2 -17 -10 -15 -16
1 -7 -2 -12 -7 -12 -5 0 -12 19 -16 43 -3 23 -8 54 -11 68 -5 24 -3 26 22 21
22 -4 26 -2 21 12 -4 9 -2 16 3 16 6 0 10 9 10 20 0 11 -5 20 -11 20 -5 0 -7
5 -4 10 10 17 25 11 25 -10z m-160 -622 c0 -36 -41 -73 -80 -73 -15 0 -24 -5
-22 -13 1 -9 -6 -12 -20 -10 -13 2 -23 -2 -23 -9 0 -7 -11 -20 -25 -30 l-25
-17 20 24 c16 19 12 18 -27 -9 -27 -17 -48 -34 -48 -37 0 -3 6 -2 13 2 26 15
-10 -13 -64 -49 -58 -39 -92 -50 -69 -22 7 8 16 13 20 10 5 -3 12 0 16 6 5 8
3 9 -6 4 -29 -18 -1 16 60 71 36 32 58 50 50 39 -8 -11 3 -2 25 19 47 47 184
138 196 130 5 -3 9 -19 9 -36z"/>
<path d="M2827 2403 c-13 -20 102 -351 134 -388 32 -35 92 -73 84 -53 -3 7
-15 18 -28 23 -14 7 -23 20 -24 40 -4 44 -40 130 -53 127 -7 -1 -9 5 -5 17 3
10 -6 49 -20 87 -28 75 -41 96 -31 49 5 -24 4 -26 -4 -12 -6 9 -13 27 -15 39
-3 12 -9 24 -14 27 -5 3 -11 17 -13 31 -2 17 -6 21 -11 13z"/>
</g>
</svg>
